# xmcd
#
# Track frame offsets:
#	5895
#	25610
#	42615
#	54997
#	77360
#	90972
#	104640
#	118710
#	136002
#	149275
#
# Disc length: 2247 seconds
#
# Revision: 0
# Processed by: cddbd v1.4PL0 Copyright (c) Steve Scherf et al.
# Submitted via: dBpowerAMP V4.0
#
DISCID=8408790a
DTITLE=Bruce Robison - Long Way From Anywhere
DYEAR=1900
DGENRE=Country
TTITLE0=Drivin' All Night Long
TTITLE1=Just Married
TTITLE2=Red Letter Day
TTITLE3=Travelin' Soldier
TTITLE4=The Good Life
TTITLE5=Trouble
TTITLE6=Anymore Good Lovin'
TTITLE7=What Did You Think
TTITLE8=Emotionally Gone
TTITLE9=Long Way From Anywhere
EXTD=1999 Lucky Dog Records\n\nSongwriters: \ntracks 1, 3, 8 and 10 Bruce Robison\ntrack 2 Bruce Robison and Damon Bramblett\ntrack 4 Bruce Robison and Farrah Braniff\ntrack 5 Joe Dickens\ntrack 6 Yuuf Islam (Cat Stevens]\ntrack 7 Bruce Robison and Jack Ingram 
EXTD=\ntrack 9 Damon Bramblett\n\nTravelin' Soldier was recorded by the Dixie Chicks on their 2002 Album "Home"
EXTT0=
EXTT1=
EXTT2=
EXTT3=
EXTT4=
EXTT5=
EXTT6=
EXTT7=
EXTT8=
EXTT9=
PLAYORDER=
